<svg width="100" height="100" viewBox="0 0 100 100" fill="none" xmlns="http://www.w3.org/2000/svg">
<rect width="100" height="100" rx="30" fill="white"/>
<path d="M52.8572 27C52.8572 24.2386 55.0958 22 57.8572 22H73C75.7615 22 78 24.2386 78 27V45.2431C78 46.4571 77.5064 47.6189 76.6325 48.4615L75.8294 49.236C72.9964 51.9678 68.3161 49.5245 68.9379 45.6384L69.0646 44.8465C69.1514 44.3036 69.0237 43.7481 68.7084 43.2977C67.5722 41.6745 65.0282 42.3616 64.8637 44.3361L64.501 48.6878C64.2196 52.0653 59.92 53.3147 57.8722 50.6141L53.873 45.3397C53.2139 44.4705 52.8572 43.4096 52.8572 42.3187V27Z" fill="#2F2F2F"/>
<path d="M55.1327 56.241C54.0957 54.2432 55.5455 51.8571 57.7964 51.8571H73C75.7614 51.8571 78 54.0957 78 56.8571V72C78 74.7614 75.7614 77 73 77H57.5664C54.9656 77 52.8571 74.8915 52.8571 72.2907C52.8571 70.4654 51.8024 68.8044 50.1503 68.0283L46.4557 66.2926C44.0696 65.1716 43.7587 61.9027 45.8909 60.352C46.7206 59.7486 47.775 59.5437 48.7703 59.7926L51.7411 60.5353C54.2494 61.1623 56.3239 58.5358 55.1327 56.241Z" fill="#FFEC3C"/>
<path d="M23 27C23 24.2386 25.2386 22 28 22H38.8803C42.086 22 43.5748 25.9772 41.157 28.0822C38.5551 30.3475 40.498 34.6093 43.9144 34.131L54.9538 32.5855C57.6668 32.2057 60.1802 34.0796 60.5906 36.7881L60.7516 37.8504C61.4245 42.2914 56.355 45.2984 52.7804 42.5786L51.1456 41.3347C49.3684 39.9825 46.91 39.9727 45.1221 41.3109L37.2062 47.2353C36.2052 47.9845 34.9599 48.3314 33.7158 48.2078L27.5055 47.5906C24.9482 47.3365 23 45.1851 23 42.6151V27Z" fill="#FFEC3C"/>
<rect x="23" y="51.8571" width="25.1429" height="25.1429" rx="5" fill="#2F2F2F"/>
<path d="M34.612 31.232H36.196V39.5H34.612V31.232ZM30.892 30.5H39.916V31.892H30.892V30.5Z" fill="black"/>
<path d="M63.708 36.336V35.028H69.996V36.336H63.708ZM67.884 29.4L72.204 38.4H70.512L66.588 30H67.2L63.276 38.4H61.584L65.904 29.4H67.884Z" fill="white"/>
<path d="M36.088 63.864V62.952L40.288 68.1H38.332L35.092 64.02H35.788L32.536 68.1H30.628L34.84 62.976V63.84L30.928 59.1H32.896L35.86 62.808H35.14L38.08 59.1H39.988L36.088 63.864Z" fill="white"/>
<path d="M65.808 60.2H67.392V69.2H65.808V60.2Z" fill="black"/>
</svg>
