<svg width="100" height="100" viewBox="0 0 100 100" fill="none" xmlns="http://www.w3.org/2000/svg">
<rect width="100" height="100" rx="25" fill="white"/>
<path d="M52.5715 25C52.5715 22.2386 54.81 20 57.5715 20H75C77.7615 20 80 22.2386 80 25V45.3561C80 46.6805 79.4615 47.9479 78.5082 48.8671L77.6321 49.712C74.5416 52.6921 69.4357 50.0267 70.114 45.7873L70.2523 44.9234C70.347 44.3312 70.2077 43.7252 69.8637 43.2339C68.6242 41.4631 65.849 42.2127 65.6695 44.3667L65.2738 49.114C64.9668 52.7985 60.2764 54.1615 58.0425 51.2154L53.5873 45.3397C52.9282 44.4705 52.5715 43.4096 52.5715 42.3187V25Z" fill="#2F2F2F"/>
<path d="M55.0539 57.3538C53.9226 55.1744 55.5042 52.5714 57.9598 52.5714H75C77.7614 52.5714 80 54.81 80 57.5714V75C80 77.7614 77.7614 80 75 80H57.5714C54.81 80 52.5714 77.7614 52.5714 75V74.7753C52.5714 72.8373 51.4516 71.0739 49.6975 70.2498L45.5881 68.3192C42.985 67.0963 42.6459 63.5302 44.9719 61.8386C45.877 61.1803 47.0273 60.9568 48.1131 61.2283L51.354 62.0385C54.0903 62.7226 56.3534 59.8572 55.0539 57.3538Z" fill="#FFEC3C"/>
<path d="M20 25C20 22.2386 22.2386 20 25 20H37.3239C40.8211 20 42.4452 24.3388 39.8076 26.6352C36.9692 29.1064 39.0887 33.7556 42.8158 33.2338L55.3038 31.4855C58.0168 31.1056 60.5302 32.9796 60.9406 35.6881L61.3516 38.4004C62.0245 42.8414 56.955 45.8484 53.3804 43.1286L50.4314 40.8847C48.6541 39.5325 46.1957 39.5227 44.4078 40.8608L35.3562 47.6353C34.3552 48.3845 33.1099 48.7314 31.8658 48.6078L24.5055 47.8763C21.9482 47.6222 20 45.4708 20 42.9008V25Z" fill="#FFEC3C"/>
<rect x="20" y="52.5714" width="27.4286" height="27.4286" rx="5" fill="#2F2F2F"/>
<path d="M32.312 29.732H33.896V38H32.312V29.732ZM28.592 29H37.616V30.392H28.592V29Z" fill="black"/>
<path d="M64.208 34.736V33.428H70.496V34.736H64.208ZM68.384 27.8L72.704 36.8H71.012L67.088 28.4H67.7L63.776 36.8H62.084L66.404 27.8H68.384Z" fill="white"/>
<path d="M33.788 64.964V64.052L37.988 69.2H36.032L32.792 65.12H33.488L30.236 69.2H28.328L32.54 64.076V64.94L28.628 60.2H30.596L33.56 63.908H32.84L35.78 60.2H37.688L33.788 64.964Z" fill="white"/>
<path d="M66.608 61.4H68.192V70.4H66.608V61.4Z" fill="black"/>
</svg>
